<svg width="150" height="39" viewBox="0 0 150 39" fill="none" xmlns="http://www.w3.org/2000/svg">
<path d="M149.167 34.4796C149.167 36.5566 147.257 38.239 144.895 38.239H5.11034C2.74956 38.239 0.833313 36.5566 0.833313 34.4796V4.49965C0.833313 2.42364 2.74956 0.735352 5.11034 0.735352H144.894C147.257 0.735352 149.166 2.42364 149.166 4.49965L149.167 34.4796Z" fill="black"/>
<path d="M144.444 0.780717C147.017 0.780717 149.11 2.61617 149.11 4.87181V34.1026C149.11 36.3582 147.017 38.1937 144.444 38.1937H5.55555C2.98333 38.1937 0.890277 36.3582 0.890277 34.1026V4.87181C0.890277 2.61617 2.98333 0.780717 5.55555 0.780717H144.444ZM144.444 1.24383e-05H5.55555C2.50139 1.24383e-05 0 2.19354 0 4.87181V34.1026C0 36.7808 2.50139 38.9744 5.55555 38.9744H144.444C147.499 38.9744 150 36.7808 150 34.1026V4.87181C150 2.19354 147.499 1.24383e-05 144.444 1.24383e-05Z" fill="#A6A6A6"/>
<path d="M33.4755 19.2767C33.4433 16.1364 36.4077 14.6086 36.5433 14.5375C34.8644 12.3909 32.2622 12.0977 31.3477 12.0743C29.1622 11.8726 27.0422 13.2211 25.9289 13.2211C24.7933 13.2211 23.0789 12.0938 21.2311 12.1269C18.8533 12.1591 16.6289 13.3663 15.4089 15.2409C12.8911 19.0634 14.7689 24.6805 17.1811 27.7702C18.3877 29.2834 19.7977 30.9729 21.6433 30.9135C23.4489 30.8482 24.1233 29.9041 26.3022 29.9041C28.4611 29.9041 29.0944 30.9135 30.9766 30.8755C32.9144 30.8482 34.1344 29.3555 35.2989 27.8287C36.6933 26.0943 37.2533 24.3863 37.2755 24.2986C37.23 24.2849 33.5122 23.0407 33.4755 19.2767Z" fill="#B8B8B8"/>
<path d="M29.92 10.0418C30.8911 8.9768 31.5555 7.52792 31.3711 6.05762C29.9655 6.11218 28.2077 6.91018 27.1955 7.95177C26.3 8.86962 25.5 10.374 25.7066 11.7888C27.2855 11.8921 28.9066 11.0902 29.92 10.0418Z" fill="#B8B8B8"/>
<path d="M59.6055 30.6961H57.0822L55.7 26.8874H50.8955L49.5789 30.6961H47.1222L51.8822 17.7294H54.8222L59.6055 30.6961ZM55.2833 25.2894L54.0333 21.9035C53.9011 21.5576 53.6533 20.7431 53.2877 19.4608H53.2433C53.0977 20.0123 52.8633 20.8269 52.5411 21.9035L51.3133 25.2894H55.2833Z" fill="white"/>
<path d="M71.8467 25.9062C71.8467 27.4964 71.3567 28.7533 70.3767 29.676C69.4989 30.4974 68.4089 30.9076 67.1078 30.9076C65.7034 30.9076 64.6945 30.4653 64.08 29.5806H64.0356V34.5059H61.6667V24.4242C61.6667 23.4246 61.6367 22.3986 61.5789 21.3462H63.6623L63.7945 22.8282H63.8389C64.6289 21.7116 65.8278 21.1543 67.4367 21.1543C68.6945 21.1543 69.7445 21.5898 70.5845 22.4619C71.4267 23.3349 71.8467 24.4827 71.8467 25.9062ZM69.4334 25.9822C69.4334 25.0722 69.2 24.3219 68.7311 23.7315C68.2189 23.1157 67.5311 22.8078 66.6689 22.8078C66.0845 22.8078 65.5534 22.9793 65.0789 23.3174C64.6034 23.6584 64.2922 24.1037 64.1467 24.6552C64.0734 24.9124 64.0367 25.1229 64.0367 25.2885V26.8475C64.0367 27.5276 64.2745 28.1015 64.75 28.5701C65.2256 29.0388 65.8434 29.2727 66.6034 29.2727C67.4956 29.2727 68.19 28.9706 68.6867 28.3685C69.1845 27.7653 69.4334 26.9702 69.4334 25.9822Z" fill="white"/>
<path d="M84.11 25.9062C84.11 27.4964 83.62 28.7533 82.6389 29.676C81.7622 30.4974 80.6722 30.9076 79.3711 30.9076C77.9667 30.9076 76.9578 30.4653 76.3444 29.5806H76.3V34.5059H73.9311V24.4242C73.9311 23.4246 73.9011 22.3986 73.8433 21.3462H75.9267L76.0589 22.8282H76.1033C76.8922 21.7116 78.0911 21.1543 79.7011 21.1543C80.9578 21.1543 82.0078 21.5898 82.85 22.4619C83.6889 23.3349 84.11 24.4827 84.11 25.9062ZM81.6967 25.9822C81.6967 25.0722 81.4622 24.3219 80.9933 23.7315C80.4811 23.1157 79.7955 22.8078 78.9322 22.8078C78.3467 22.8078 77.8167 22.9793 77.3411 23.3174C76.8655 23.6584 76.5555 24.1037 76.41 24.6552C76.3378 24.9124 76.3 25.1229 76.3 25.2885V26.8475C76.3 27.5276 76.5378 28.1015 77.0111 28.5701C77.4867 29.0378 78.1044 29.2727 78.8667 29.2727C79.7589 29.2727 80.4533 28.9706 80.95 28.3685C81.4478 27.7653 81.6967 26.9702 81.6967 25.9822Z" fill="white"/>
<path d="M97.8211 27.0599C97.8211 28.1629 97.3844 29.0602 96.5078 29.753C95.5444 30.5101 94.2033 30.8881 92.48 30.8881C90.8889 30.8881 89.6133 30.6192 88.6478 30.0804L89.1967 28.349C90.2367 28.9005 91.3778 29.1772 92.6211 29.1772C93.5133 29.1772 94.2078 28.9998 94.7067 28.6471C95.2033 28.2944 95.4511 27.8209 95.4511 27.2304C95.4511 26.7043 95.2467 26.2609 94.8367 25.9014C94.4289 25.5418 93.7478 25.2076 92.7967 24.8988C90.2078 24.052 88.9144 22.8117 88.9144 21.1806C88.9144 20.1147 89.3678 19.2407 90.2755 18.5606C91.18 17.8795 92.3867 17.5394 93.8955 17.5394C95.2411 17.5394 96.3589 17.745 97.2511 18.1552L96.6589 19.8487C95.8255 19.4511 94.8833 19.2524 93.8289 19.2524C92.9955 19.2524 92.3444 19.4326 91.8778 19.7912C91.4833 20.1117 91.2855 20.5025 91.2855 20.9653C91.2855 21.4778 91.5111 21.9016 91.9644 22.2349C92.3589 22.5428 93.0755 22.876 94.1155 23.2355C95.3878 23.6847 96.3222 24.2099 96.9233 24.812C97.5222 25.4123 97.8211 26.1635 97.8211 27.0599Z" fill="white"/>
<path d="M105.653 22.9051H103.042V27.4447C103.042 28.5993 103.502 29.1761 104.424 29.1761C104.848 29.1761 105.199 29.144 105.477 29.0797L105.542 30.6571C105.075 30.8101 104.461 30.8871 103.7 30.8871C102.764 30.8871 102.033 30.6367 101.505 30.1368C100.98 29.636 100.715 28.7961 100.715 27.6162V22.9032H99.1599V21.3442H100.715V19.6323L103.042 19.0165V21.3442H105.653V22.9051Z" fill="white"/>
<path d="M117.434 25.9442C117.434 27.3814 116.966 28.5614 116.03 29.4841C115.049 30.4341 113.747 30.9076 112.123 30.9076C110.559 30.9076 109.313 30.4526 108.384 29.5426C107.456 28.6325 106.991 27.4837 106.991 26.0992C106.991 24.6503 107.469 23.4635 108.428 22.5408C109.384 21.6171 110.676 21.1553 112.299 21.1553C113.863 21.1553 115.122 21.6103 116.072 22.5213C116.981 23.4051 117.434 24.546 117.434 25.9442ZM114.977 26.0115C114.977 25.1492 114.767 24.4096 114.341 23.7929C113.844 23.0465 113.134 22.6743 112.214 22.6743C111.262 22.6743 110.539 23.0475 110.042 23.7929C109.617 24.4106 109.407 25.1618 109.407 26.0505C109.407 26.9128 109.617 27.6523 110.042 28.2681C110.554 29.0145 111.27 29.3867 112.193 29.3867C113.098 29.3867 113.808 29.0067 114.32 28.2486C114.757 27.6201 114.977 26.8728 114.977 26.0115Z" fill="white"/>
<path d="M125.134 23.1732C124.9 23.1352 124.65 23.1157 124.388 23.1157C123.554 23.1157 122.91 23.3914 122.457 23.9439C122.062 24.4311 121.864 25.0469 121.864 25.7903V30.6962H119.497L119.519 24.2908C119.519 23.2131 119.489 22.2319 119.43 21.3472H121.493L121.58 23.1361H121.646C121.896 22.5213 122.29 22.0263 122.83 21.6551C123.358 21.3209 123.928 21.1543 124.542 21.1543C124.761 21.1543 124.959 21.1679 125.134 21.1923V23.1732Z" fill="white"/>
<path d="M135.729 25.5788C135.729 25.951 135.701 26.2648 135.642 26.521H128.536C128.563 27.4447 128.907 28.1511 129.567 28.6383C130.166 29.0738 130.94 29.2921 131.891 29.2921C132.943 29.2921 133.903 29.145 134.767 28.8497L135.138 30.2918C134.129 30.6776 132.938 30.8696 131.563 30.8696C129.91 30.8696 128.612 30.4428 127.668 29.5903C126.726 28.7377 126.253 27.5928 126.253 26.1566C126.253 24.7467 126.692 23.5726 127.571 22.6363C128.491 21.6366 129.734 21.1367 131.299 21.1367C132.836 21.1367 133.999 21.6366 134.789 22.6363C135.414 23.4304 135.729 24.4125 135.729 25.5788ZM133.47 25.04C133.486 24.4242 133.331 23.8922 133.01 23.443C132.6 22.8652 131.97 22.5768 131.122 22.5768C130.348 22.5768 129.718 22.8584 129.237 23.4235C128.842 23.8727 128.608 24.4115 128.536 25.039H133.47V25.04Z" fill="white"/>
<path d="M54.5 9.75231C54.5 10.8991 54.1078 11.7624 53.3245 12.3422C52.5989 12.8771 51.5678 13.145 50.2323 13.145C49.57 13.145 49.0034 13.1197 48.5289 13.069V6.80292C49.1478 6.71523 49.8145 6.67041 50.5345 6.67041C51.8067 6.67041 52.7656 6.91303 53.4123 7.39826C54.1367 7.94682 54.5 8.73118 54.5 9.75231ZM53.2723 9.78056C53.2723 9.03713 53.0478 8.46713 52.5989 8.06959C52.15 7.67302 51.4945 7.47426 50.6312 7.47426C50.2645 7.47426 49.9523 7.49569 49.6934 7.54051V12.3042C49.8367 12.3236 50.0989 12.3324 50.48 12.3324C51.3712 12.3324 52.0589 12.1151 52.5434 11.6806C53.0278 11.246 53.2723 10.6127 53.2723 9.78056Z" fill="#5B5B5B"/>
<path d="M61.01 10.7538C61.01 11.4602 60.78 12.039 60.32 12.4931C59.8378 12.9598 59.1989 13.1927 58.4011 13.1927C57.6322 13.1927 57.02 12.9695 56.5633 12.5213C56.1078 12.0741 55.88 11.5099 55.88 10.8298C55.88 10.1186 56.1144 9.53491 56.5856 9.08184C57.0567 8.62876 57.69 8.40173 58.4878 8.40173C59.2567 8.40173 59.8745 8.62486 60.3422 9.07209C60.7867 9.50666 61.01 10.0679 61.01 10.7538ZM59.8022 10.787C59.8022 10.3631 59.6978 9.99968 59.49 9.69666C59.2456 9.3303 58.8978 9.14712 58.4456 9.14712C57.9778 9.14712 57.6222 9.3303 57.3778 9.69666C57.1689 9.99968 57.0656 10.369 57.0656 10.8055C57.0656 11.2293 57.17 11.5928 57.3778 11.8958C57.63 12.2621 57.9811 12.4453 58.4345 12.4453C58.8789 12.4453 59.2278 12.2592 59.4789 11.886C59.6945 11.5772 59.8022 11.2108 59.8022 10.787Z" fill="#5B5B5B"/>
<path d="M69.7389 8.49536L68.1 13.0885H67.0334L66.3545 11.094C66.1822 10.5961 66.0422 10.1011 65.9334 9.61003H65.9122C65.8111 10.1147 65.6711 10.6087 65.4911 11.094L64.77 13.0885H63.6911L62.15 8.49536H63.3467L63.9389 10.6789C64.0822 11.1953 64.2 11.6874 64.2945 12.1531H64.3156C64.4022 11.7692 64.5456 11.2801 64.7478 10.6886L65.4911 8.49634H66.44L67.1522 10.6419C67.3245 11.1651 67.4645 11.6688 67.5722 12.1541H67.6045C67.6834 11.6815 67.8022 11.1778 67.96 10.6419L68.5956 8.49634H69.7389V8.49536Z" fill="#5B5B5B"/>
<path d="M75.7755 13.0885H74.6111V10.4577C74.6111 9.64708 74.26 9.24175 73.5555 9.24175C73.21 9.24175 72.9311 9.35282 72.7144 9.57595C72.5 9.79908 72.3911 10.0622 72.3911 10.3632V13.0875H71.2267V9.80785C71.2267 9.40446 71.2122 8.96698 71.1844 8.49344H72.2078L72.2622 9.21154H72.2944C72.43 8.98841 72.6322 8.80426 72.8978 8.65713C73.2133 8.48564 73.5667 8.39893 73.9533 8.39893C74.4422 8.39893 74.8489 8.53728 75.1722 8.81498C75.5744 9.15503 75.7755 9.66267 75.7755 10.3369V13.0885Z" fill="#5B5B5B"/>
<path d="M78.9867 13.0885H77.8234V6.38782H78.9867V13.0885Z" fill="#5B5B5B"/>
<path d="M85.8423 10.7538C85.8423 11.4602 85.6123 12.039 85.1523 12.4931C84.6701 12.9598 84.0301 13.1927 83.2334 13.1927C82.4634 13.1927 81.8512 12.9695 81.3956 12.5213C80.9401 12.0741 80.7123 11.5099 80.7123 10.8298C80.7123 10.1186 80.9467 9.53491 81.4178 9.08184C81.8889 8.62876 82.5223 8.40173 83.3189 8.40173C84.0889 8.40173 84.7056 8.62486 85.1745 9.07209C85.6189 9.50666 85.8423 10.0679 85.8423 10.7538ZM84.6334 10.787C84.6334 10.3631 84.5289 9.99968 84.3212 9.69666C84.0778 9.3303 83.7289 9.14712 83.2778 9.14712C82.8089 9.14712 82.4534 9.3303 82.2101 9.69666C82.0012 9.99968 81.8978 10.369 81.8978 10.8055C81.8978 11.2293 82.0023 11.5928 82.2101 11.8958C82.4623 12.2621 82.8134 12.4453 83.2667 12.4453C83.7112 12.4453 84.0589 12.2592 84.3101 11.886C84.5267 11.5772 84.6334 11.2108 84.6334 10.787Z" fill="#5B5B5B"/>
<path d="M91.4778 13.0884H90.4322L90.3456 12.5593H90.3133C89.9556 12.9812 89.4456 13.1927 88.7833 13.1927C88.2889 13.1927 87.8889 13.0533 87.5878 12.7766C87.3145 12.5252 87.1778 12.2125 87.1778 11.8412C87.1778 11.28 87.4445 10.8522 87.9811 10.556C88.5167 10.2598 89.27 10.1147 90.24 10.1215V10.0357C90.24 9.43066 89.8778 9.12861 89.1522 9.12861C88.6356 9.12861 88.18 9.24261 87.7867 9.46866L87.55 8.7983C88.0367 8.53425 88.6378 8.40173 89.3467 8.40173C90.7156 8.40173 91.4022 9.03507 91.4022 10.3017V11.9932C91.4022 12.4521 91.4278 12.8175 91.4778 13.0884ZM90.2689 11.5099V10.8016C88.9845 10.7821 88.3422 11.091 88.3422 11.7272C88.3422 11.9669 88.4156 12.1462 88.5656 12.266C88.7156 12.3859 88.9067 12.4453 89.1345 12.4453C89.39 12.4453 89.6289 12.3742 89.8467 12.2329C90.0656 12.0907 90.2 11.9104 90.25 11.6892C90.2622 11.6395 90.2689 11.5791 90.2689 11.5099Z" fill="#5B5B5B"/>
<path d="M98.0945 13.0885H97.0611L97.0067 12.3509H96.9745C96.6445 12.9121 96.0823 13.1927 95.2923 13.1927C94.6611 13.1927 94.1356 12.9755 93.7189 12.5409C93.3023 12.1063 93.0945 11.5422 93.0945 10.8494C93.0945 10.106 93.32 9.50382 93.7734 9.04392C94.2123 8.6152 94.75 8.40084 95.39 8.40084C96.0934 8.40084 96.5856 8.60838 96.8656 9.02443H96.8878V6.38782H98.0534V11.851C98.0534 12.2983 98.0667 12.7104 98.0945 13.0885ZM96.8878 11.1515V10.3856C96.8878 10.2531 96.8767 10.1459 96.8556 10.0641C96.79 9.81854 96.6489 9.61197 96.4345 9.44536C96.2178 9.27874 95.9567 9.19495 95.6556 9.19495C95.2211 9.19495 94.8811 9.34597 94.6311 9.649C94.3834 9.95202 94.2578 10.3388 94.2578 10.8114C94.2578 11.2655 94.3767 11.6338 94.6156 11.9173C94.8678 12.2194 95.2078 12.3704 95.6334 12.3704C96.0156 12.3704 96.3211 12.2447 96.5534 11.9923C96.7778 11.7595 96.8878 11.4788 96.8878 11.1515Z" fill="#5B5B5B"/>
<path d="M108.053 10.7538C108.053 11.4602 107.823 12.039 107.363 12.4931C106.881 12.9598 106.243 13.1927 105.444 13.1927C104.677 13.1927 104.064 12.9695 103.607 12.5213C103.151 12.0741 102.923 11.5099 102.923 10.8298C102.923 10.1186 103.158 9.53491 103.629 9.08184C104.1 8.62876 104.733 8.40173 105.532 8.40173C106.3 8.40173 106.919 8.62486 107.386 9.07209C107.83 9.50666 108.053 10.0679 108.053 10.7538ZM106.847 10.787C106.847 10.3631 106.742 9.99968 106.534 9.69666C106.289 9.3303 105.942 9.14712 105.489 9.14712C105.022 9.14712 104.667 9.3303 104.421 9.69666C104.212 9.99968 104.109 10.369 104.109 10.8055C104.109 11.2293 104.213 11.5928 104.421 11.8958C104.673 12.2621 105.024 12.4453 105.478 12.4453C105.922 12.4453 106.272 12.2592 106.523 11.886C106.738 11.5772 106.847 11.2108 106.847 10.787Z" fill="#5B5B5B"/>
<path d="M114.314 13.0885H113.151V10.4577C113.151 9.64708 112.8 9.24175 112.094 9.24175C111.749 9.24175 111.47 9.35282 111.254 9.57595C111.039 9.79908 110.931 10.0622 110.931 10.3632V13.0875H109.766V9.80785C109.766 9.40446 109.752 8.96698 109.724 8.49344H110.747L110.801 9.21154H110.833C110.97 8.98841 111.172 8.80426 111.437 8.65713C111.753 8.48564 112.106 8.39893 112.493 8.39893C112.981 8.39893 113.388 8.53728 113.711 8.81498C114.114 9.15503 114.314 9.66267 114.314 10.3369V13.0885Z" fill="#5B5B5B"/>
<path d="M122.151 9.26021H120.869V11.4915C120.869 12.0586 121.097 12.3421 121.548 12.3421C121.757 12.3421 121.93 12.3265 122.067 12.2944L122.097 13.069C121.867 13.145 121.565 13.183 121.192 13.183C120.732 13.183 120.375 13.0602 120.116 12.8147C119.856 12.5691 119.727 12.156 119.727 11.5763V9.26021H118.961V8.49534H119.727V7.65349L120.868 7.35144V8.49436H122.15V9.26021H122.151Z" fill="#5B5B5B"/>
<path d="M128.316 13.0885H127.15V10.4772C127.15 9.65387 126.799 9.24171 126.096 9.24171C125.555 9.24171 125.187 9.48043 124.984 9.95787C124.95 10.0582 124.93 10.181 124.93 10.3252V13.0875H123.767V6.38782H124.93V9.15597H124.952C125.319 8.65223 125.844 8.40084 126.526 8.40084C127.008 8.40084 127.407 8.5392 127.723 8.81689C128.118 9.16279 128.316 9.67725 128.316 10.3574V13.0885Z" fill="#5B5B5B"/>
<path d="M134.674 10.5747C134.674 10.7578 134.659 10.9118 134.631 11.0375H131.139C131.154 11.4915 131.321 11.8374 131.644 12.0771C131.94 12.2915 132.321 12.3987 132.788 12.3987C133.304 12.3987 133.775 12.3266 134.2 12.1814L134.382 12.8907C133.885 13.0797 133.301 13.1742 132.624 13.1742C131.813 13.1742 131.174 12.9648 130.712 12.5458C130.248 12.1268 130.018 11.5646 130.018 10.8592C130.018 10.1664 130.232 9.58958 130.664 9.12968C131.115 8.6386 131.725 8.39307 132.495 8.39307C133.249 8.39307 133.821 8.6386 134.208 9.12968C134.52 9.51943 134.674 10.0017 134.674 10.5747ZM133.563 10.3106C133.572 10.0076 133.495 9.74645 133.338 9.52625C133.135 9.24271 132.828 9.10045 132.411 9.10045C132.031 9.10045 131.721 9.23881 131.484 9.5165C131.291 9.73768 131.177 10.0017 131.139 10.3106H133.563Z" fill="#5B5B5B"/>
</svg>
