<svg width="145" height="14" viewBox="0 0 145 14" fill="none" xmlns="http://www.w3.org/2000/svg">
<path d="M5.90625 6.85938C5.90625 7.30729 5.96354 7.69271 6.07812 8.01562C6.19271 8.33854 6.35938 8.60417 6.57812 8.8125C6.80208 9.02083 7.07292 9.17448 7.39062 9.27344C7.71354 9.3724 8.08073 9.42188 8.49219 9.42188C8.98177 9.42188 9.5599 9.36198 10.2266 9.24219C10.8932 9.1224 11.6302 8.9375 12.4375 8.6875V12.3438C11.599 12.625 10.7812 12.8281 9.98438 12.9531C9.19271 13.0781 8.41146 13.1406 7.64062 13.1406C6.69792 13.1406 5.8151 13.0234 4.99219 12.7891C4.17448 12.5547 3.46094 12.1771 2.85156 11.6562C2.2474 11.1302 1.77083 10.4688 1.42188 9.67188C1.07292 8.875 0.898438 7.9375 0.898438 6.85938C0.898438 5.80729 1.05729 4.90104 1.375 4.14062C1.69792 3.38021 2.15104 2.75521 2.73438 2.26562C3.32292 1.77083 4.02604 1.40625 4.84375 1.17188C5.66667 0.9375 6.57812 0.820312 7.57812 0.820312C8.19271 0.820312 8.74479 0.851562 9.23438 0.914062C9.72917 0.976562 10.1745 1.05469 10.5703 1.14844C10.9661 1.24219 11.3151 1.34896 11.6172 1.46875C11.9245 1.58333 12.1979 1.69531 12.4375 1.80469V5.39844H10.0859C9.82031 5.02344 9.52344 4.7474 9.19531 4.57031C8.8724 4.39323 8.53906 4.30469 8.19531 4.30469C7.90365 4.30469 7.61979 4.36198 7.34375 4.47656C7.07292 4.59115 6.83073 4.75781 6.61719 4.97656C6.40365 5.19531 6.23177 5.46354 6.10156 5.78125C5.97135 6.09375 5.90625 6.45312 5.90625 6.85938ZM20.6641 13.1406C20.0286 13.1406 19.4141 13.1016 18.8203 13.0234C18.2318 12.9453 17.6771 12.7995 17.1562 12.5859C16.6406 12.3724 16.1693 12.099 15.7422 11.7656C15.3151 11.4271 14.9479 11.0234 14.6406 10.5547C14.3333 10.0807 14.0938 9.53906 13.9219 8.92969C13.7552 8.3151 13.6719 7.625 13.6719 6.85938C13.6719 6.14062 13.7552 5.49219 13.9219 4.91406C14.0885 4.33594 14.3229 3.82292 14.625 3.375C14.9271 2.92708 15.2891 2.54167 15.7109 2.21875C16.138 1.89583 16.6094 1.63281 17.125 1.42969C17.6458 1.22135 18.2031 1.06771 18.7969 0.96875C19.3958 0.869792 20.0182 0.820312 20.6641 0.820312C21.3099 0.820312 21.9323 0.869792 22.5312 0.96875C23.1302 1.06771 23.6901 1.22135 24.2109 1.42969C24.7318 1.63802 25.2031 1.90365 25.625 2.22656C26.0521 2.54948 26.4167 2.9349 26.7188 3.38281C27.0208 3.83073 27.2552 4.34375 27.4219 4.92188C27.5885 5.49479 27.6719 6.14062 27.6719 6.85938C27.6719 7.98438 27.487 8.95052 27.1172 9.75781C26.7526 10.5599 26.2526 11.2161 25.6172 11.7266C24.9818 12.237 24.2396 12.6016 23.3906 12.8203C22.5417 13.0339 21.6328 13.1406 20.6641 13.1406ZM20.6641 4.39062C20.3307 4.39062 20.0495 4.4349 19.8203 4.52344C19.5964 4.60677 19.4089 4.71875 19.2578 4.85938C19.112 5 19 5.15885 18.9219 5.33594C18.8438 5.51302 18.7839 5.69271 18.7422 5.875C18.7057 6.05729 18.6849 6.23438 18.6797 6.40625C18.6745 6.57812 18.6719 6.72917 18.6719 6.85938C18.6719 6.98958 18.6745 7.14062 18.6797 7.3125C18.6849 7.48438 18.7057 7.66406 18.7422 7.85156C18.7839 8.03385 18.8438 8.21615 18.9219 8.39844C19 8.58073 19.112 8.74479 19.2578 8.89062C19.4089 9.03125 19.5964 9.14583 19.8203 9.23438C20.0495 9.32292 20.3307 9.36719 20.6641 9.36719C20.9974 9.36719 21.276 9.32292 21.5 9.23438C21.7292 9.14583 21.9193 9.03125 22.0703 8.89062C22.2214 8.74479 22.3359 8.58073 22.4141 8.39844C22.4974 8.21615 22.5573 8.03385 22.5938 7.85156C22.6302 7.66406 22.651 7.48438 22.6562 7.3125C22.6667 7.14062 22.6719 6.98958 22.6719 6.85938C22.6719 6.72917 22.6667 6.57812 22.6562 6.40625C22.651 6.23438 22.6302 6.05729 22.5938 5.875C22.5573 5.69271 22.4974 5.51302 22.4141 5.33594C22.3359 5.15885 22.2214 5 22.0703 4.85938C21.9193 4.71875 21.7292 4.60677 21.5 4.52344C21.276 4.4349 20.9974 4.39062 20.6641 4.39062ZM34.8516 7.14844V13H28.8594V9.60938L29.8594 9.41406V4.58594L28.8594 4.39062V1H34.8516L37.3672 5.60938L39.8594 1H45.8594V4.39062L44.8594 4.58594V9.41406L45.8594 9.60938V13H39.8594V7.14844L37.3672 11.4609L34.8516 7.14844ZM47.4531 1H54.4531V4.39062L53.4531 4.58594V9.41406L54.4531 9.60938V13H47.4531V9.60938L48.4531 9.41406V4.58594L47.4531 4.39062V1ZM60.0469 7.14844V9.41406L61.0469 9.60156V13H56.0469V9.60938L57.0469 9.41406V4.58594L56.0469 4.39062V1H62.0469L66.0469 7.14844V4.60156L65.0469 4.39062V1H70.0469V4.39062L69.0469 4.58594V9.41406L70.0469 9.60938V13H64.0391L60.0469 7.14844ZM71.2422 6.85938C71.2422 5.77083 71.3984 4.85156 71.7109 4.10156C72.0286 3.35156 72.4792 2.73698 73.0625 2.25781C73.6198 1.79948 74.2734 1.44531 75.0234 1.19531C75.7734 0.945312 76.6354 0.820312 77.6094 0.820312C78.2812 0.820312 78.8776 0.848958 79.3984 0.90625C79.9193 0.963542 80.3828 1.03906 80.7891 1.13281C81.2005 1.22656 81.5651 1.33333 81.8828 1.45312C82.2057 1.57292 82.5052 1.69792 82.7812 1.82812V5.39844H80.4297C80.1641 5.02344 79.8672 4.7474 79.5391 4.57031C79.2161 4.39323 78.8828 4.30469 78.5391 4.30469C78.2474 4.30469 77.9635 4.36198 77.6875 4.47656C77.4167 4.59115 77.1745 4.75781 76.9609 4.97656C76.7474 5.19531 76.5755 5.46354 76.4453 5.78125C76.3151 6.09375 76.25 6.45312 76.25 6.85938C76.25 7.76042 76.4531 8.41927 76.8594 8.83594C77.2708 9.2526 77.8542 9.46094 78.6094 9.46094C78.7969 9.46094 78.9844 9.45052 79.1719 9.42969C79.3646 9.40885 79.5573 9.3776 79.75 9.33594V8.39062H78.25V6.25H83.1094V11.9531C82.6979 12.125 82.2604 12.2891 81.7969 12.4453C81.3385 12.5964 80.8776 12.7292 80.4141 12.8438C79.9557 12.9531 79.5052 13.0286 79.0625 13.0703C78.6198 13.1172 78.2109 13.1406 77.8359 13.1406C77.2214 13.1406 76.6328 13.0964 76.0703 13.0078C75.5078 12.9193 74.9818 12.7604 74.4922 12.5312C74.0078 12.3021 73.5651 12.0156 73.1641 11.6719C72.763 11.3229 72.4193 10.9141 72.1328 10.4453C71.8516 9.97135 71.6328 9.4375 71.4766 8.84375C71.3203 8.24479 71.2422 7.58333 71.2422 6.85938ZM99.5156 9.23438C99.5104 9.75 99.4349 10.2083 99.2891 10.6094C99.1484 11.0052 98.9505 11.349 98.6953 11.6406C98.4401 11.9271 98.1406 12.1719 97.7969 12.375C97.4531 12.5729 97.0833 12.7344 96.6875 12.8594C96.2917 12.9792 95.875 13.0547 95.4375 13.0859C95.0052 13.1224 94.5703 13.1406 94.1328 13.1406C93.3411 13.1406 92.6458 13.1094 92.0469 13.0469C91.7031 13.0052 91.1901 12.8906 90.5078 12.7031C89.9505 12.5521 89.513 12.3932 89.1953 12.2266V9.14062H91.5469C91.8177 9.51562 92.1224 9.79167 92.4609 9.96875C92.8047 10.1458 93.1562 10.2344 93.5156 10.2344C93.6094 10.2344 93.7135 10.2266 93.8281 10.2109C93.9427 10.1953 94.0495 10.151 94.1484 10.0781C94.2526 10.0052 94.3385 9.89062 94.4062 9.73438C94.4792 9.57812 94.5156 9.35938 94.5156 9.07812C94.0677 9.03646 93.6224 8.97656 93.1797 8.89844C92.7422 8.82031 92.3229 8.71354 91.9219 8.57812C91.5208 8.44271 91.1458 8.27344 90.7969 8.07031C90.4531 7.86198 90.1536 7.61198 89.8984 7.32031C89.6484 7.02865 89.4505 6.6875 89.3047 6.29688C89.1641 5.90104 89.0938 5.44531 89.0938 4.92969C89.0938 4.3776 89.1667 3.89323 89.3125 3.47656C89.4583 3.05469 89.6562 2.69271 89.9062 2.39062C90.1615 2.08333 90.4583 1.83073 90.7969 1.63281C91.1406 1.42969 91.5078 1.26823 91.8984 1.14844C92.2943 1.02865 92.7031 0.953125 93.125 0.921875C93.5521 0.890625 93.9766 0.875 94.3984 0.875C95.013 0.875 95.5651 0.898438 96.0547 0.945312C96.5495 0.986979 96.9948 1.05469 97.3906 1.14844C97.7865 1.24219 98.1354 1.34896 98.4375 1.46875C98.7448 1.58333 99.0182 1.69531 99.2578 1.80469V4.85156H96.9062C96.6406 4.47656 96.3438 4.20052 96.0156 4.02344C95.6927 3.84635 95.3594 3.75781 95.0156 3.75781C94.9219 3.75781 94.8151 3.77083 94.6953 3.79688C94.5755 3.81771 94.4635 3.8724 94.3594 3.96094C94.2552 4.04427 94.1667 4.16927 94.0938 4.33594C94.0208 4.4974 93.9844 4.71875 93.9844 5C94.8958 5.03125 95.6979 5.13021 96.3906 5.29688C97.0833 5.46354 97.6589 5.71615 98.1172 6.05469C98.5807 6.38802 98.9297 6.81771 99.1641 7.34375C99.3984 7.86458 99.5156 8.49479 99.5156 9.23438ZM107.617 13.1406C106.982 13.1406 106.367 13.1016 105.773 13.0234C105.185 12.9453 104.63 12.7995 104.109 12.5859C103.594 12.3724 103.122 12.099 102.695 11.7656C102.268 11.4271 101.901 11.0234 101.594 10.5547C101.286 10.0807 101.047 9.53906 100.875 8.92969C100.708 8.3151 100.625 7.625 100.625 6.85938C100.625 6.14062 100.708 5.49219 100.875 4.91406C101.042 4.33594 101.276 3.82292 101.578 3.375C101.88 2.92708 102.242 2.54167 102.664 2.21875C103.091 1.89583 103.562 1.63281 104.078 1.42969C104.599 1.22135 105.156 1.06771 105.75 0.96875C106.349 0.869792 106.971 0.820312 107.617 0.820312C108.263 0.820312 108.885 0.869792 109.484 0.96875C110.083 1.06771 110.643 1.22135 111.164 1.42969C111.685 1.63802 112.156 1.90365 112.578 2.22656C113.005 2.54948 113.37 2.9349 113.672 3.38281C113.974 3.83073 114.208 4.34375 114.375 4.92188C114.542 5.49479 114.625 6.14062 114.625 6.85938C114.625 7.98438 114.44 8.95052 114.07 9.75781C113.706 10.5599 113.206 11.2161 112.57 11.7266C111.935 12.237 111.193 12.6016 110.344 12.8203C109.495 13.0339 108.586 13.1406 107.617 13.1406ZM107.617 4.39062C107.284 4.39062 107.003 4.4349 106.773 4.52344C106.549 4.60677 106.362 4.71875 106.211 4.85938C106.065 5 105.953 5.15885 105.875 5.33594C105.797 5.51302 105.737 5.69271 105.695 5.875C105.659 6.05729 105.638 6.23438 105.633 6.40625C105.628 6.57812 105.625 6.72917 105.625 6.85938C105.625 6.98958 105.628 7.14062 105.633 7.3125C105.638 7.48438 105.659 7.66406 105.695 7.85156C105.737 8.03385 105.797 8.21615 105.875 8.39844C105.953 8.58073 106.065 8.74479 106.211 8.89062C106.362 9.03125 106.549 9.14583 106.773 9.23438C107.003 9.32292 107.284 9.36719 107.617 9.36719C107.951 9.36719 108.229 9.32292 108.453 9.23438C108.682 9.14583 108.872 9.03125 109.023 8.89062C109.174 8.74479 109.289 8.58073 109.367 8.39844C109.451 8.21615 109.51 8.03385 109.547 7.85156C109.583 7.66406 109.604 7.48438 109.609 7.3125C109.62 7.14062 109.625 6.98958 109.625 6.85938C109.625 6.72917 109.62 6.57812 109.609 6.40625C109.604 6.23438 109.583 6.05729 109.547 5.875C109.51 5.69271 109.451 5.51302 109.367 5.33594C109.289 5.15885 109.174 5 109.023 4.85938C108.872 4.71875 108.682 4.60677 108.453 4.52344C108.229 4.4349 107.951 4.39062 107.617 4.39062ZM122.617 13.1406C121.982 13.1406 121.367 13.1016 120.773 13.0234C120.185 12.9453 119.63 12.7995 119.109 12.5859C118.594 12.3724 118.122 12.099 117.695 11.7656C117.268 11.4271 116.901 11.0234 116.594 10.5547C116.286 10.0807 116.047 9.53906 115.875 8.92969C115.708 8.3151 115.625 7.625 115.625 6.85938C115.625 6.14062 115.708 5.49219 115.875 4.91406C116.042 4.33594 116.276 3.82292 116.578 3.375C116.88 2.92708 117.242 2.54167 117.664 2.21875C118.091 1.89583 118.562 1.63281 119.078 1.42969C119.599 1.22135 120.156 1.06771 120.75 0.96875C121.349 0.869792 121.971 0.820312 122.617 0.820312C123.263 0.820312 123.885 0.869792 124.484 0.96875C125.083 1.06771 125.643 1.22135 126.164 1.42969C126.685 1.63802 127.156 1.90365 127.578 2.22656C128.005 2.54948 128.37 2.9349 128.672 3.38281C128.974 3.83073 129.208 4.34375 129.375 4.92188C129.542 5.49479 129.625 6.14062 129.625 6.85938C129.625 7.98438 129.44 8.95052 129.07 9.75781C128.706 10.5599 128.206 11.2161 127.57 11.7266C126.935 12.237 126.193 12.6016 125.344 12.8203C124.495 13.0339 123.586 13.1406 122.617 13.1406ZM122.617 4.39062C122.284 4.39062 122.003 4.4349 121.773 4.52344C121.549 4.60677 121.362 4.71875 121.211 4.85938C121.065 5 120.953 5.15885 120.875 5.33594C120.797 5.51302 120.737 5.69271 120.695 5.875C120.659 6.05729 120.638 6.23438 120.633 6.40625C120.628 6.57812 120.625 6.72917 120.625 6.85938C120.625 6.98958 120.628 7.14062 120.633 7.3125C120.638 7.48438 120.659 7.66406 120.695 7.85156C120.737 8.03385 120.797 8.21615 120.875 8.39844C120.953 8.58073 121.065 8.74479 121.211 8.89062C121.362 9.03125 121.549 9.14583 121.773 9.23438C122.003 9.32292 122.284 9.36719 122.617 9.36719C122.951 9.36719 123.229 9.32292 123.453 9.23438C123.682 9.14583 123.872 9.03125 124.023 8.89062C124.174 8.74479 124.289 8.58073 124.367 8.39844C124.451 8.21615 124.51 8.03385 124.547 7.85156C124.583 7.66406 124.604 7.48438 124.609 7.3125C124.62 7.14062 124.625 6.98958 124.625 6.85938C124.625 6.72917 124.62 6.57812 124.609 6.40625C124.604 6.23438 124.583 6.05729 124.547 5.875C124.51 5.69271 124.451 5.51302 124.367 5.33594C124.289 5.15885 124.174 5 124.023 4.85938C123.872 4.71875 123.682 4.60677 123.453 4.52344C123.229 4.4349 122.951 4.39062 122.617 4.39062ZM134.812 7.14844V9.41406L135.812 9.60156V13H130.812V9.60938L131.812 9.41406V4.58594L130.812 4.39062V1H136.812L140.812 7.14844V4.60156L139.812 4.39062V1H144.812V4.39062L143.812 4.58594V9.41406L144.812 9.60938V13H138.805L134.812 7.14844Z" fill="white"/>
</svg>
