<svg width="150" height="40" viewBox="0 0 150 40" fill="none" xmlns="http://www.w3.org/2000/svg">
<path d="M144.444 39.656H5.55556C2.50139 39.656 0 37.4595 0 34.7775V5.50651C0 2.82455 2.50139 0.628005 5.55556 0.628005H144.444C147.499 0.628005 150 2.82455 150 5.50651V34.7775C150 37.4595 147.499 39.656 144.444 39.656Z" fill="black"/>
<path d="M144.444 1.40978C147.017 1.40978 149.11 3.24776 149.11 5.50651V34.7775C149.11 37.0363 147.017 38.8742 144.444 38.8742H5.55556C2.98333 38.8742 0.890278 37.0363 0.890278 34.7775V5.50651C0.890278 3.24776 2.98333 1.40978 5.55556 1.40978H144.444ZM144.444 0.628005H5.55556C2.50139 0.628005 0 2.82455 0 5.50651V34.7775C0 37.4595 2.50139 39.656 5.55556 39.656H144.444C147.499 39.656 150 37.4595 150 34.7775V5.50651C150 2.82455 147.499 0.628005 144.444 0.628005Z" fill="#A6A6A6"/>
<path d="M52.686 10.6231C52.686 11.4378 52.4083 12.0903 51.861 12.5769C51.2319 13.1538 50.4124 13.4441 49.4083 13.4441C48.4485 13.4441 47.6291 13.1489 46.9569 12.5671C46.2833 11.9768 45.9471 11.2524 45.9471 10.3852C45.9471 9.51808 46.2833 8.79363 46.9569 8.20821C47.6291 7.62157 48.4485 7.32642 49.4083 7.32642C49.886 7.32642 50.3416 7.41301 50.7763 7.574C51.2096 7.73621 51.5624 7.95574 51.818 8.2265L51.2374 8.74118C50.7916 8.27894 50.1846 8.05087 49.4083 8.05087C48.7083 8.05087 48.1013 8.26553 47.586 8.69849C47.0763 9.13268 46.8208 9.69493 46.8208 10.3852C46.8208 11.0755 47.0763 11.6427 47.586 12.0769C48.1013 12.5049 48.7083 12.7245 49.4083 12.7245C50.1513 12.7245 50.7763 12.5049 51.2694 12.072C51.5944 11.7854 51.7791 11.3902 51.8277 10.8853H49.4083V10.1803H52.636C52.6749 10.3328 52.686 10.4804 52.686 10.6231Z" fill="#5B5B5B" stroke="white" stroke-width="0.16" stroke-miterlimit="10"/>
<path d="M57.8069 8.17893H54.775V10.0328H57.5083V10.7377H54.775V12.5915H57.8069V13.3099H53.9166V7.46057H57.8069V8.17893Z" fill="#5B5B5B" stroke="white" stroke-width="0.16" stroke-miterlimit="10"/>
<path d="M61.4208 13.3099H60.5625V8.17893H58.7028V7.46057H63.2819V8.17893H61.4208V13.3099Z" fill="#5B5B5B" stroke="white" stroke-width="0.16" stroke-miterlimit="10"/>
<path d="M66.5958 13.3099V7.46057H67.4528V13.3099H66.5958Z" fill="#5B5B5B" stroke="white" stroke-width="0.16" stroke-miterlimit="10"/>
<path d="M71.2514 13.3099H70.4V8.17893H68.5333V7.46057H73.118V8.17893H71.2514V13.3099Z" fill="#5B5B5B" stroke="white" stroke-width="0.16" stroke-miterlimit="10"/>
<path d="M81.7875 12.5574C81.1305 13.1489 80.3166 13.4441 79.3458 13.4441C78.3694 13.4441 77.5555 13.1489 76.8986 12.5574C76.243 11.9671 75.9166 11.2426 75.9166 10.3852C75.9166 9.52784 76.243 8.80338 76.8986 8.21308C77.5555 7.62157 78.3694 7.32642 79.3458 7.32642C80.3111 7.32642 81.125 7.62157 81.7819 8.21796C82.443 8.81314 82.7694 9.53272 82.7694 10.3852C82.7694 11.2426 82.443 11.9671 81.7875 12.5574ZM77.5333 12.0671C78.0277 12.5049 78.6291 12.7245 79.3458 12.7245C80.0569 12.7245 80.6639 12.5049 81.1527 12.0671C81.6458 11.6293 81.8958 11.067 81.8958 10.3852C81.8958 9.70347 81.6458 9.14122 81.1527 8.70337C80.6639 8.26553 80.0569 8.04599 79.3458 8.04599C78.6291 8.04599 78.0277 8.26553 77.5333 8.70337C77.0402 9.14122 76.7902 9.70347 76.7902 10.3852C76.7902 11.067 77.0402 11.6293 77.5333 12.0671Z" fill="#5B5B5B" stroke="white" stroke-width="0.16" stroke-miterlimit="10"/>
<path d="M83.9735 13.3099V7.46057H85.0152L88.2541 12.0098H88.2916L88.2541 10.8853V7.46057H89.111V13.3099H88.2166L84.8249 8.53628H84.7874L84.8249 9.66565V13.3099H83.9735Z" fill="#5B5B5B" stroke="white" stroke-width="0.16" stroke-miterlimit="10"/>
<path d="M75.7055 21.8522C73.0958 21.8522 70.9639 23.5962 70.9639 26.0026C70.9639 28.3894 73.0958 30.1517 75.7055 30.1517C78.3208 30.1517 80.4527 28.3894 80.4527 26.0026C80.4527 23.5962 78.3208 21.8522 75.7055 21.8522ZM75.7055 28.5174C74.2736 28.5174 73.0416 27.4795 73.0416 26.0026C73.0416 24.5061 74.2736 23.4865 75.7055 23.4865C77.1375 23.4865 78.375 24.5061 78.375 26.0026C78.375 27.4795 77.1375 28.5174 75.7055 28.5174ZM65.3597 21.8522C62.7444 21.8522 60.618 23.5962 60.618 26.0026C60.618 28.3894 62.7444 30.1517 65.3597 30.1517C67.9736 30.1517 70.1014 28.3894 70.1014 26.0026C70.1014 23.5962 67.9736 21.8522 65.3597 21.8522ZM65.3597 28.5174C63.9264 28.5174 62.6902 27.4795 62.6902 26.0026C62.6902 24.5061 63.9264 23.4865 65.3597 23.4865C66.7916 23.4865 68.0236 24.5061 68.0236 26.0026C68.0236 27.4795 66.7916 28.5174 65.3597 28.5174ZM53.0486 23.1243V24.8878H57.8444C57.7041 25.8733 57.3291 26.5977 56.7541 27.1027C56.0541 27.7125 54.9639 28.3894 53.0486 28.3894C50.0972 28.3894 47.7861 26.2977 47.7861 23.706C47.7861 21.1143 50.0972 19.0227 53.0486 19.0227C54.6444 19.0227 55.8055 19.5703 56.6625 20.2801L58.0777 19.0373C56.8791 18.0323 55.2847 17.2603 53.0486 17.2603C49.0014 17.2603 45.6 20.152 45.6 23.706C45.6 27.26 49.0014 30.1517 53.0486 30.1517C55.2361 30.1517 56.8791 29.5224 58.1708 28.3418C59.4944 27.1795 59.9069 25.5452 59.9069 24.2256C59.9069 23.8158 59.868 23.4389 59.7986 23.1243H53.0486ZM103.39 24.4915C103 23.5633 101.796 21.8522 99.343 21.8522C96.9125 21.8522 94.8888 23.534 94.8888 26.0026C94.8888 28.3272 96.8916 30.1517 99.5763 30.1517C101.747 30.1517 103 28.9894 103.515 28.3125L101.904 27.3698C101.367 28.0601 100.635 28.5174 99.5763 28.5174C98.525 28.5174 97.7708 28.0942 97.2874 27.26L103.608 24.9634L103.39 24.4915ZM96.9458 25.8733C96.8916 24.2731 98.3611 23.4536 99.4138 23.4536C100.239 23.4536 100.939 23.8158 101.172 24.3341L96.9458 25.8733ZM91.8083 29.8993H93.8861V17.703H91.8083V29.8993ZM88.4055 22.7767H88.3361C87.8694 22.2912 86.9791 21.8522 85.8513 21.8522C83.4847 21.8522 81.3208 23.6767 81.3208 26.016C81.3208 28.3418 83.4847 30.1517 85.8513 30.1517C86.9791 30.1517 87.8694 29.709 88.3361 29.209H88.4055V29.8041C88.4055 31.3909 87.4402 32.2434 85.8833 32.2434C84.6138 32.2434 83.8264 31.4384 83.5013 30.7615L81.6944 31.4238C82.2152 32.5239 83.5944 33.8777 85.8833 33.8777C88.3194 33.8777 90.375 32.619 90.375 29.5566V22.1046H88.4055V22.7767ZM86.0291 28.5174C84.5972 28.5174 83.3986 27.4649 83.3986 26.016C83.3986 24.5537 84.5972 23.4865 86.0291 23.4865C87.4402 23.4865 88.5527 24.5537 88.5527 26.016C88.5527 27.4649 87.4402 28.5174 86.0291 28.5174ZM113.118 17.703H108.149V29.8993H110.221V25.2781H113.118C115.419 25.2781 117.676 23.8158 117.676 21.49C117.676 19.1654 115.414 17.703 113.118 17.703ZM113.172 23.5816H110.221V19.3995H113.172C114.719 19.3995 115.603 20.5277 115.603 21.49C115.603 22.4339 114.719 23.5816 113.172 23.5816ZM125.982 21.829C124.485 21.829 122.928 22.4096 122.287 23.6963L124.126 24.3731C124.522 23.6963 125.25 23.4767 126.019 23.4767C127.094 23.4767 128.185 24.0439 128.201 25.0452V25.1732C127.826 24.983 127.024 24.7012 126.036 24.7012C124.056 24.7012 122.037 25.6586 122.037 27.4454C122.037 29.0797 123.66 30.1322 125.483 30.1322C126.878 30.1322 127.647 29.5797 128.13 28.937H128.201V29.8798H130.203V25.2013C130.203 23.0389 128.364 21.829 125.982 21.829ZM125.732 28.5126C125.054 28.5126 124.11 28.2174 124.11 27.4795C124.11 26.5355 125.287 26.1733 126.307 26.1733C127.219 26.1733 127.647 26.3502 128.201 26.5831C128.039 27.7125 126.932 28.5126 125.732 28.5126ZM137.494 22.0961L135.112 27.3832H135.042L132.579 22.0961H130.344L134.044 29.4846L131.933 33.596H134.099L139.8 22.0961H137.494ZM118.815 29.8993H120.893V17.703H118.815V29.8993Z" fill="white"/>
<path d="M11.5945 7.98383C11.2681 8.28386 11.0792 8.75097 11.0792 9.35591V30.9335C11.0792 31.5385 11.2681 32.0056 11.5945 32.3056L11.6751 32.3715L25.4445 20.285V19.9996L11.6751 7.91309L11.5945 7.98383Z" fill="url(#paint0_linear_86_119)"/>
<path d="M30.0292 24.3158L25.4445 20.2849V19.9995L30.0347 15.9687L30.1375 16.0211L35.5736 18.7372C37.125 19.508 37.125 20.7764 35.5736 21.5521L30.1375 24.2634L30.0292 24.3158Z" fill="url(#paint1_linear_86_119)"/>
<path d="M30.1374 24.2634L25.4444 20.1422L11.5944 32.3056C12.1096 32.7812 12.9499 32.8385 13.9055 32.3629L30.1374 24.2634Z" fill="url(#paint2_linear_86_119)"/>
<path d="M30.1374 16.0211L13.9055 7.92157C12.9499 7.4508 12.1096 7.50812 11.5944 7.98377L25.4444 20.1422L30.1374 16.0211Z" fill="url(#paint3_linear_86_119)"/>
<defs>
<linearGradient id="paint0_linear_86_119" x1="24.2219" y1="31.1582" x2="7.98466" y2="12.6675" gradientUnits="userSpaceOnUse">
<stop stop-color="#F0F0F0"/>
<stop offset="0.0066" stop-color="#BDBDBD"/>
<stop offset="0.2601" stop-color="#AEAEAE"/>
<stop offset="0.5122" stop-color="#B9B9B9"/>
<stop offset="0.7604" stop-color="#B6B6B6"/>
<stop offset="1" stop-color="#9B9B9B"/>
</linearGradient>
<linearGradient id="paint1_linear_86_119" x1="37.5938" y1="20.1409" x2="10.7084" y2="20.1409" gradientUnits="userSpaceOnUse">
<stop stop-color="white"/>
<stop offset="0.4087" stop-color="#DADADA"/>
<stop offset="0.7754" stop-color="#B4B4B4"/>
<stop offset="1" stop-color="#6B6B6B"/>
</linearGradient>
<linearGradient id="paint2_linear_86_119" x1="27.5855" y1="17.9019" x2="5.5664" y2="-7.173" gradientUnits="userSpaceOnUse">
<stop stop-color="#717171"/>
<stop offset="1" stop-color="#C4C4C4"/>
</linearGradient>
<linearGradient id="paint3_linear_86_119" x1="8.10803" y1="39.4843" x2="17.9405" y2="28.2873" gradientUnits="userSpaceOnUse">
<stop stop-color="white"/>
<stop offset="0.0685" stop-color="white"/>
<stop offset="0.4762" stop-color="#9B9B9B"/>
<stop offset="0.8009" stop-color="#878787"/>
<stop offset="1" stop-color="#797979"/>
</linearGradient>
</defs>
</svg>
