<svg width="30" height="30" viewBox="0 0 30 30" fill="none" xmlns="http://www.w3.org/2000/svg">
<g clip-path="url(#clip0_152_73)">
<path d="M15 2.66609C19.0078 2.66609 19.4824 2.68344 21.0586 2.75284C22.5234 2.81646 23.3145 3.05936 23.8418 3.26177C24.5391 3.5278 25.043 3.85166 25.5645 4.36638C26.0918 4.88687 26.4141 5.37845 26.6836 6.06666C26.8887 6.58716 27.1348 7.37368 27.1992 8.81372C27.2695 10.3752 27.2871 10.8436 27.2871 14.7936C27.2871 18.7494 27.2695 19.2178 27.1992 20.7735C27.1348 22.2194 26.8887 23.0001 26.6836 23.5206C26.4141 24.2088 26.0859 24.7062 25.5645 25.2209C25.0371 25.7414 24.5391 26.0595 23.8418 26.3255C23.3145 26.5279 22.5176 26.7708 21.0586 26.8344C19.4766 26.9038 19.002 26.9212 15 26.9212C10.9922 26.9212 10.5176 26.9038 8.94141 26.8344C7.47656 26.7708 6.68555 26.5279 6.1582 26.3255C5.46094 26.0595 4.95703 25.7356 4.43555 25.2209C3.9082 24.7004 3.58594 24.2088 3.31641 23.5206C3.11133 23.0001 2.86523 22.2136 2.80078 20.7735C2.73047 19.2121 2.71289 18.7436 2.71289 14.7936C2.71289 10.8379 2.73047 10.3694 2.80078 8.81372C2.86523 7.3679 3.11133 6.58716 3.31641 6.06666C3.58594 5.37845 3.91406 4.88109 4.43555 4.36638C4.96289 3.84588 5.46094 3.5278 6.1582 3.26177C6.68555 3.05936 7.48242 2.81646 8.94141 2.75284C10.5176 2.68344 10.9922 2.66609 15 2.66609ZM15 0C10.9277 0 10.418 0.0173498 8.81836 0.0867492C7.22461 0.156149 6.12891 0.410613 5.17969 0.774959C4.18945 1.15666 3.35156 1.6598 2.51953 2.48681C1.68164 3.30804 1.17188 4.13505 0.785156 5.10664C0.416016 6.04931 0.158203 7.125 0.0878906 8.69805C0.0175781 10.2827 0 10.7858 0 14.8052C0 18.8246 0.0175781 19.3277 0.0878906 20.9066C0.158203 22.4796 0.416016 23.5611 0.785156 24.498C1.17188 25.4753 1.68164 26.3024 2.51953 27.1236C3.35156 27.9448 4.18945 28.4537 5.17383 28.8296C6.12891 29.194 7.21875 29.4485 8.8125 29.5179C10.4121 29.5873 10.9219 29.6046 14.9941 29.6046C19.0664 29.6046 19.5762 29.5873 21.1758 29.5179C22.7695 29.4485 23.8652 29.194 24.8145 28.8296C25.7988 28.4537 26.6367 27.9448 27.4688 27.1236C28.3008 26.3024 28.8164 25.4753 29.1973 24.5038C29.5664 23.5611 29.8242 22.4854 29.8945 20.9123C29.9648 19.3335 29.9824 18.8304 29.9824 14.811C29.9824 10.7916 29.9648 10.2885 29.8945 8.70962C29.8242 7.13657 29.5664 6.05509 29.1973 5.1182C28.8281 4.13505 28.3184 3.30804 27.4805 2.48681C26.6484 1.66558 25.8105 1.15666 24.8262 0.780743C23.8711 0.416396 22.7813 0.161932 21.1875 0.0925325C19.582 0.0173498 19.0723 0 15 0Z" fill="#000100"/>
<path d="M15 7.2002C10.7461 7.2002 7.29492 10.6065 7.29492 14.8052C7.29492 19.0039 10.7461 22.4102 15 22.4102C19.2539 22.4102 22.7051 19.0039 22.7051 14.8052C22.7051 10.6065 19.2539 7.2002 15 7.2002ZM15 19.7383C12.2402 19.7383 10.002 17.5291 10.002 14.8052C10.002 12.0813 12.2402 9.87207 15 9.87207C17.7598 9.87207 19.998 12.0813 19.998 14.8052C19.998 17.5291 17.7598 19.7383 15 19.7383Z" fill="#000100"/>
<path d="M24.8086 6.89949C24.8086 7.88265 24 8.67496 23.0098 8.67496C22.0137 8.67496 21.2109 7.87687 21.2109 6.89949C21.2109 5.91633 22.0195 5.12402 23.0098 5.12402C24 5.12402 24.8086 5.92212 24.8086 6.89949Z" fill="#000100"/>
</g>
<defs>
<clipPath id="clip0_152_73">
<rect width="30" height="29.6104" fill="white"/>
</clipPath>
</defs>
</svg>
