<svg width="15" height="15" viewBox="0 0 15 15" fill="none" xmlns="http://www.w3.org/2000/svg">
<path opacity="0.15" d="M13.125 11.25V3.75005C13.125 3.57746 13.055 3.42121 12.9419 3.30811L12.8125 3.43755L8.38388 7.86616C7.89573 8.35432 7.10427 8.35432 6.61612 7.86616L2.1875 3.43755L2.05806 3.30811C1.94496 3.42121 1.875 3.57746 1.875 3.75005V11.25C1.875 11.5952 2.15482 11.875 2.5 11.875H12.5C12.8452 11.875 13.125 11.5952 13.125 11.25Z" fill="white"/>
<path d="M2.05806 3.30806C2.17116 3.19496 2.32741 3.125 2.5 3.125H12.5C12.6726 3.125 12.8288 3.19496 12.9419 3.30806M2.05806 3.30806C1.94496 3.42116 1.875 3.57741 1.875 3.75V11.25C1.875 11.5952 2.15482 11.875 2.5 11.875H12.5C12.8452 11.875 13.125 11.5952 13.125 11.25V3.75C13.125 3.57741 13.055 3.42116 12.9419 3.30806M2.05806 3.30806L6.61612 7.86613C7.10427 8.35428 7.89573 8.35428 8.38388 7.86613L12.9419 3.30806" stroke="white" stroke-width="1.5" stroke-linecap="round" stroke-linejoin="round"/>
</svg>
