<svg width="30" height="30" viewBox="0 0 30 30" fill="none" xmlns="http://www.w3.org/2000/svg">
<path d="M21.4706 10.6887C23.3998 12.0547 25.7632 12.8584 28.3157 12.8584V7.99311C27.8326 7.99321 27.3508 7.94332 26.8782 7.84413V11.6738C24.3259 11.6738 21.9628 10.8701 20.0331 9.50422V19.4329C20.0331 24.3998 15.9682 28.4259 10.9542 28.4259C9.08338 28.4259 7.34451 27.8656 5.90002 26.9048C7.54866 28.5746 9.84782 29.6104 12.3914 29.6104C17.4057 29.6104 21.4708 25.5843 21.4708 20.6172V10.6887H21.4706ZM23.244 5.78021C22.258 4.71329 21.6107 3.33449 21.4706 1.81017V1.18439H20.1084C20.4513 3.1218 21.6209 4.777 23.244 5.78021ZM9.07138 23.0934C8.52054 22.378 8.22287 21.5028 8.2242 20.603C8.2242 18.3313 10.0835 16.4895 12.3773 16.4895C12.8048 16.4894 13.2297 16.5542 13.6371 16.6822V11.7082C13.161 11.6435 12.6805 11.6161 12.2002 11.6262V15.4977C11.7925 15.3697 11.3674 15.3047 10.9398 15.3051C8.64595 15.3051 6.78679 17.1467 6.78679 19.4187C6.78679 21.0251 7.71611 22.4159 9.07138 23.0934Z" fill="#FF004F"/>
<path d="M20.0331 9.50412C21.9628 10.87 24.3258 11.6737 26.8781 11.6737V7.84403C25.4535 7.54344 24.1922 6.80597 23.2439 5.78021C21.6207 4.7769 20.4512 3.12169 20.1083 1.18439H16.5301V20.617C16.522 22.8824 14.6659 24.7168 12.377 24.7168C11.0282 24.7168 9.82993 24.08 9.07103 23.0934C7.71586 22.4159 6.78654 21.025 6.78654 19.4188C6.78654 17.147 8.64569 15.3052 10.9395 15.3052C11.379 15.3052 11.8026 15.3729 12.1999 15.4978V11.6263C7.27401 11.7271 3.31238 15.7139 3.31238 20.6171C3.31238 23.0648 4.29892 25.2837 5.90008 26.9049C7.34456 27.8656 9.08344 28.426 10.9543 28.426C15.9684 28.426 20.0332 24.3997 20.0332 19.4329V9.50412H20.0331Z" fill="black"/>
<path d="M26.8782 7.84404V6.80852C25.5934 6.81045 24.3339 6.45407 23.2439 5.78011C24.2088 6.82651 25.4794 7.54802 26.8782 7.84404ZM20.1084 1.1844C20.0757 0.999241 20.0505 0.812868 20.0331 0.625783V0H15.0925V19.4328C15.0846 21.698 13.2287 23.5323 10.9395 23.5323C10.2675 23.5323 9.63298 23.3743 9.07106 23.0935C9.82996 24.08 11.0282 24.7167 12.3771 24.7167C14.6658 24.7167 16.5221 22.8826 16.5301 20.6171V1.1844H20.1084ZM12.2002 11.6263V10.5239C11.7873 10.468 11.3711 10.44 10.9544 10.4402C5.93989 10.4401 1.875 14.4664 1.875 19.4328C1.875 22.5465 3.47258 25.2906 5.90021 26.9047C4.29905 25.2836 3.31251 23.0646 3.31251 20.617C3.31251 15.7139 7.27404 11.7271 12.2002 11.6263Z" fill="#00F2EA"/>
</svg>
